<svg id="Layer_1" enable-background="new 0 0 512 512" height="512" viewBox="0 0 512 512" width="512" xmlns="http://www.w3.org/2000/svg"><path d="m464.883 208.867h-48.797c-14.456-19.481-37.619-32.133-63.686-32.133s-49.23 12.652-63.686 32.133h-241.597c-25.98 0-47.117 21.136-47.117 47.149 0 25.98 21.137 47.117 47.117 47.117h241.597c14.456 19.481 37.619 32.133 63.686 32.133s49.23-12.652 63.686-32.133h48.797c25.98 0 47.117-21.137 47.117-47.149 0-25.981-21.137-47.117-47.117-47.117zm-417.766 64.266c-9.438 0-17.117-7.679-17.117-17.149 0-9.438 7.679-17.117 17.117-17.117h227.903c-1.222 5.521-1.886 11.25-1.886 17.133s.664 11.612 1.886 17.133zm305.283 32.134c-27.166 0-49.267-22.101-49.267-49.267s22.101-49.267 49.267-49.267 49.267 22.101 49.267 49.267-22.101 49.267-49.267 49.267zm112.483-32.134h-35.102c1.222-5.521 1.886-11.25 1.886-17.133s-.664-11.612-1.886-17.133h35.102c9.438 0 17.117 7.679 17.117 17.149 0 9.439-7.679 17.117-17.117 17.117z"/><path d="m464.883 385.6h-241.598c-14.456-19.481-37.619-32.133-63.686-32.133s-49.23 12.652-63.686 32.133h-48.796c-25.98 0-47.117 21.137-47.117 47.15 0 25.98 21.137 47.117 47.117 47.117h48.797c14.456 19.481 37.618 32.133 63.686 32.133s49.23-12.652 63.686-32.133h241.597c25.98 0 47.117-21.137 47.117-47.149 0-25.981-21.137-47.118-47.117-47.118zm-417.766 64.267c-9.438 0-17.117-7.679-17.117-17.149 0-9.438 7.679-17.117 17.117-17.117h35.102c-1.222 5.521-1.886 11.25-1.886 17.133s.664 11.612 1.886 17.133zm112.483 32.133c-27.166 0-49.267-22.101-49.267-49.267s22.101-49.267 49.267-49.267 49.267 22.101 49.267 49.267-22.101 49.267-49.267 49.267zm305.283-32.133h-227.903c1.222-5.521 1.886-11.25 1.886-17.133s-.664-11.612-1.886-17.133h227.903c9.438 0 17.117 7.679 17.117 17.149 0 9.438-7.679 17.117-17.117 17.117z"/><path d="m47.117 126.4h113.063c14.456 19.481 37.619 32.133 63.686 32.133s49.23-12.652 63.687-32.133h177.33c25.98 0 47.117-21.137 47.117-47.149 0-25.98-21.137-47.117-47.117-47.117h-177.33c-14.456-19.482-37.62-32.134-63.687-32.134s-49.23 12.652-63.686 32.133h-113.063c-25.98 0-47.117 21.137-47.117 47.15 0 25.98 21.137 47.117 47.117 47.117zm417.766-64.267c9.438 0 17.117 7.679 17.117 17.149 0 9.438-7.679 17.117-17.117 17.117h-163.635c1.222-5.521 1.886-11.25 1.886-17.133s-.664-11.612-1.886-17.133zm-241.017-32.133c27.166 0 49.268 22.101 49.268 49.267s-22.102 49.267-49.268 49.267-49.266-22.102-49.266-49.267 22.1-49.267 49.266-49.267zm-176.749 32.133h99.368c-1.222 5.521-1.886 11.25-1.886 17.133s.664 11.612 1.886 17.133h-99.368c-9.438.001-17.117-7.678-17.117-17.149 0-9.438 7.679-17.117 17.117-17.117z"/></svg>